<svg xmlns="http://www.w3.org/2000/svg" xmlns:xlink="http://www.w3.org/1999/xlink" width="187.948" height="134.934" viewBox="0 0 187.948 134.934"><defs><clipPath id="clip-path"><rect x="70" width="187.948" height="134.934" fill="none"></rect></clipPath></defs><g id="Scorri_gruppo_4" data-name="Scorri gruppo 4" transform="translate(-70)" clip-path="url(#clip-path)" style="isolation: isolate"><g id="Raggruppa_130" data-name="Raggruppa 130" transform="translate(70.448 -2292.577)"><path id="Tracciato_593" data-name="Tracciato 593" d="M233.453,197.056l-19.181-20.01,8.348-5.324.487-4.15-3.872-.231-10.043,7.223-12.532.011-7.671-4.684-2.748.561.04,3.045,4.945,5.477-.652,2.877-58.2,6.259L72.1,186.426l-6.5,2.723-4.785,6.08-2.462,14.222-.435,10.223L56.43,229.22l.41,9.508,1.678.343,2.439-2.686,1.983-8.921-1.607-12.376.559-.084,3.778,18.841L63.1,250.2l2.35,32.633.224,3.614,2.29,1.954,10.125.016,3.263-.987-9.059-14.752,4.494-18.734,2.354,0,8.212,24.908,4.233,6.394,2.088,1.286,11.177.008,1.434-1.795L96.607,278.8l-6.56-20.2,1.644-3.28,3.854.358,2.42,5.924,3.5-5.775,3.4,5.8,2.876-6.3,8.467-6.508,30.045-2.877,5.043,6.165,4.25,30.138,2.236,4.33,10.237,0,1.1-1.623-6.222-8.661-.748-16.491,3.36,1.865,3.539,10.955,4.5,14.225,2.018,1.565,9.159.006.76-2.069-2.678-2.478-8.637-16.879,1.991-17.689,9.678-7.159,14.1-26.186,16.226-7.491,14.922-1.7,1.279-1.387,2.088-5.885Z" transform="translate(-46.959 2125.237)" fill="#044822"></path><path id="Tracciato_594" data-name="Tracciato 594" d="M41.494,297.61c5.769,19.5-.529,40.731-.618,41.058.016-.1.157-1.629.157-1.629,1.849-13.1-2.658-20.489-2.658-20.489,3.042,11.334-2.572,17.8-5.864,20.489-1.234,1.008-2.152,1.868-2.152,1.868a12.433,12.433,0,0,1-.25-1.868c-2.213-16,8.263-36.372,8.263-36.372-6.7,5.222-10.763,22.215-12.548,31.566,2.129-15.757-1.39-23.014-1.39-23.014a62.337,62.337,0,0,1-3.568,27.82c-.368.964-.613,1.868-.613,1.868-.17,0-.322-1.321-.468-1.868-2.517-9.526-1.275-33.014-1.275-33.014-2.5,5.479-4,16.737-4.807,24.909,0-13.853-4.951-22.16-4.951-22.16C13.98,324.49,7.009,336.1,7.009,336.1c1.393-15.883-3.485-19.854-3.485-19.854,3.6,6.574-4.53,19.551-4.53,19.551-3.135-17.105,4.53-41.239,4.53-41.239-4.642,5.734-7.366,20.085-8.793,30.519-.152-13.254-6.466-18.3-6.466-18.3,6.345,13.441-.073,29.935-.073,29.935.7-15.883-3.835-23.522-3.835-23.522.57,7.012-5.878,19.553-8.222,23.851A13.951,13.951,0,0,0-24.7,338.9a9.106,9.106,0,0,1-.352-1.868c-2.343-11.8,2.442-36.985,2.442-36.985-5.484,3.74-8.838,30.339-9.595,36.987-.109.958-.164,1.868-.164,1.868-.032,0-.068-1.362-.1-1.868-.723-10.326-.643-21.783-.643-21.783-2.306,2.218-4.124,23.65-4.135,23.65l.061-1.868c1.5-26.685-3.894-35.455-3.894-35.455,2.64,13.11-2.127,30.331-3.7,35.455-.295.966-.481,1.868-.481,1.868-.346,0-.641-1.312-.9-1.868-3.66-7.866.9-25.988.9-25.988-4.208,4.74-5.646,13.108-6.114,19.371.386-32.1-2.6-42.587-2.6-42.587,2.147,11.575-2.465,42.1-3.592,49.2-.066.418-.059.374,0,0h-.091c.834-10.806-3.288-30.264-3.288-30.264,0,8.482-2.222,25.183-2.924,30.264-.132.956-.211,1.868-.211,1.868a19.463,19.463,0,0,1-.766-1.868c-5.31-13.828.766-36.985.766-36.985-8.092,9.459-8.967,31.115-9.051,36.984-.007.452-.009.576,0,0,0,0,.414,2.247-.72,0-3.887-7.363.934-30.263.934-30.263-4.776,4.449-6.718,24.59-7.147,30.263-.07.946-.159,1.868-.159,1.868a10.376,10.376,0,0,1-.345-1.868c-3.792-19.491,7.445-41.08,7.445-41.08-11.149,6.11-14.034,42.946-14.034,42.946v16.8H49.157V337.037h0C49.178,302.846,41.494,297.61,41.494,297.61Z" transform="translate(16.714 2071.806)" fill="#499a26"></path><path id="Tracciato_595" data-name="Tracciato 595" d="M256.128,297.61c5.056,19.5-.465,40.731-.542,41.058.014-.1.137-1.629.137-1.629,1.621-13.1-2.33-20.489-2.33-20.489,2.667,11.334-2.254,17.8-5.14,20.489-1.081,1.008-1.886,1.868-1.886,1.868a14.029,14.029,0,0,1-.219-1.868c-1.94-16,7.244-36.372,7.244-36.372-5.876,5.222-9.434,22.215-11,31.566,1.866-15.757-1.219-23.014-1.219-23.014a70.389,70.389,0,0,1-3.127,27.82c-.323.964-.538,1.868-.538,1.868-.149,0-.282-1.321-.41-1.868-2.206-9.526-1.117-33.014-1.117-33.014-2.191,5.479-3.509,16.737-4.214,24.909,0-13.853-4.34-22.16-4.34-22.16C232.01,324.49,225.9,336.1,225.9,336.1c1.221-15.883-3.055-19.854-3.055-19.854,3.159,6.574-3.971,19.551-3.971,19.551-2.748-17.105,3.971-41.239,3.971-41.239-4.069,5.734-6.457,20.085-7.707,30.519-.134-13.254-5.668-18.3-5.668-18.3,5.562,13.441-.064,29.935-.064,29.935.612-15.883-3.362-23.522-3.362-23.522.5,7.012-5.152,19.553-7.208,23.851a15.033,15.033,0,0,0-.735,1.868,10.3,10.3,0,0,1-.309-1.868c-2.053-11.8,2.141-36.985,2.141-36.985-4.808,3.74-7.747,30.339-8.41,36.987-.1.958-.144,1.868-.144,1.868-.028,0-.06-1.362-.09-1.868-.633-10.326-.563-21.783-.563-21.783-2.021,2.218-3.615,23.65-3.625,23.65l.054-1.868c1.314-26.685-3.413-35.455-3.413-35.455,2.314,13.11-1.864,30.331-3.243,35.455-.259.966-.422,1.868-.422,1.868-.3,0-.562-1.312-.789-1.868-3.209-7.866.789-25.988.789-25.988-3.688,4.74-4.949,13.108-5.36,19.371.339-32.1-2.278-42.587-2.278-42.587,1.882,11.575-2.161,42.1-3.148,49.2h-.08c.731-10.806-2.882-30.264-2.882-30.264,0,8.482-1.947,25.183-2.563,30.264-.116.956-.185,1.868-.185,1.868-.312-.623-.464-1.354-.671-1.868-4.654-13.828.671-36.985.671-36.985-7.093,9.459-7.86,31.115-7.934,36.984h0s.362,2.247-.631,0c-3.408-7.363.818-30.263.818-30.263-4.186,4.449-5.889,24.59-6.265,30.263-.062.946-.139,1.868-.139,1.868a11.645,11.645,0,0,1-.3-1.868c-3.324-19.491,6.526-41.08,6.526-41.08-9.773,6.11-12.3,42.946-12.3,42.946v16.8H262.845V337.037h0C262.863,302.846,256.128,297.61,256.128,297.61Z" transform="translate(-85.503 2071.806)" fill="#499a26"></path></g></g></svg>