<svg xmlns="http://www.w3.org/2000/svg" width="159.916" height="37.978" viewBox="0 0 159.916 37.978"><defs><style>.a{fill:#e68f00;}</style></defs><g transform="translate(1262.148 5014.36)"><path class="a" d="M143.091,47.978h2.643a2.825,2.825,0,0,1,2.9,2.939v1.713a2.825,2.825,0,0,1-2.9,2.94h-2.643Zm5.471,21.959h4.653l-4.229-10.916a6.749,6.749,0,0,0,4.117-6.392V50.916c0-4.094-3.088-7.034-7.369-7.034h-7.109V69.937h4.466V59.664h1.49ZM124.47,58.584V50.545a2.9,2.9,0,1,1,5.807,0v8.039ZM120,69.937h4.466V62.679h5.807v7.258h4.467V50.545c0-4.1-3.09-7.035-7.37-7.035S120,46.45,120,50.545Zm-8.349-26.054V59.7l-5.4-15.819h-4.875V69.937h4.466V54.193l5.4,15.744h4.876V43.883Zm-18.989,0V59.7l-5.4-15.819H82.393V69.937h4.466V54.193l5.4,15.744h4.876V43.883Zm-24.428,14.7V50.545a2.9,2.9,0,1,1,5.808,0v8.039ZM63.772,69.937h4.466V62.679h5.808v7.258h4.466V50.545c0-4.1-3.089-7.035-7.369-7.035s-7.37,2.94-7.37,7.035Z" transform="translate(-1301.242 -5046.691)"></path><path class="a" d="M42.177,60.235V69.9h4.467V57.816ZM55.5,53.022V69.9h4.467v-19.3Z" transform="translate(-1301.343 -5046.658)"></path><path class="a" d="M52.124,43.853,48.1,47.874l-4.019-4.021H39.209V60.239l4.466-2.417V48.915l4.429,4.43,4.43-4.43v4.113L57,50.61V43.853Z" transform="translate(-1301.357 -5046.689)"></path><rect class="a" width="4.489" height="26.067" transform="translate(-1144.187 -5002.821)"></rect><path class="a" d="M175.735,43.881V59.7l-5.4-15.819h-4.877V69.936h4.468V54.191l5.4,15.745H180.2V43.881Z" transform="translate(-1300.768 -5046.688)"></path><path class="a" d="M191.081,66.215a2.827,2.827,0,0,1-2.9-2.942V50.545a2.9,2.9,0,1,1,5.807,0V63.274a2.827,2.827,0,0,1-2.9,2.942m0,4.093c4.281,0,7.37-2.941,7.37-7.035V50.545c0-4.094-3.089-7.035-7.37-7.035s-7.369,2.941-7.369,7.035V63.274c0,4.094,3.088,7.035,7.369,7.035" transform="translate(-1300.683 -5046.691)"></path><path class="a" d="M117.889,32.382v6.685h3.659V37.815h-2.292V32.382Z" transform="translate(-1300.99 -5046.743)"></path><rect class="a" width="1.382" height="6.685" transform="translate(-1186.562 -5014.36)"></rect></g></svg>