<svg xmlns="http://www.w3.org/2000/svg" width="514.646" height="155.174" viewBox="0 0 514.646 155.174"><g id="Raggruppa_7" data-name="Raggruppa 7" transform="translate(0.5 0.5)"><path id="Sottrazione_3" data-name="Sottrazione 3" d="M77.088,154.174a77.681,77.681,0,0,1-15.536-1.566,76.654,76.654,0,0,1-27.564-11.6,77.306,77.306,0,0,1-27.93-33.916A76.707,76.707,0,0,1,1.566,92.623a77.847,77.847,0,0,1,0-31.072,76.655,76.655,0,0,1,11.6-27.564A77.318,77.318,0,0,1,47.081,6.058a76.759,76.759,0,0,1,14.47-4.492,77.847,77.847,0,0,1,31.072,0,76.671,76.671,0,0,1,27.564,11.6,77.323,77.323,0,0,1,27.929,33.916,76.684,76.684,0,0,1,4.492,14.47,77.846,77.846,0,0,1,0,31.072,76.67,76.67,0,0,1-11.6,27.564,77.311,77.311,0,0,1-33.916,27.929,76.706,76.706,0,0,1-14.469,4.492A77.681,77.681,0,0,1,77.088,154.174ZM63.772,102.307h0a90.868,90.868,0,0,1,20.2,2.2,73.114,73.114,0,0,1,21.456,8.53,5.063,5.063,0,0,0,5.219-8.678,83.874,83.874,0,0,0-24.275-9.747,99.762,99.762,0,0,0-22.582-2.514,111.463,111.463,0,0,0-19.565,1.731,78.341,78.341,0,0,0-8.451,1.931,5.068,5.068,0,0,0-3.362,6.313,5.014,5.014,0,0,0,1.858,2.615,5.061,5.061,0,0,0,4.456.759,70.675,70.675,0,0,1,7.2-1.59A105.313,105.313,0,0,1,63.772,102.307Zm.85-22.983a102.452,102.452,0,0,1,23.218,2.633,95.538,95.538,0,0,1,25.944,10.213A5.984,5.984,0,1,0,119.749,81.8,108.117,108.117,0,0,0,90.63,70.274a113.351,113.351,0,0,0-25.97-2.981,115.69,115.69,0,0,0-22.283,2.139,77.369,77.369,0,0,0-9.411,2.385,5.984,5.984,0,1,0,3.88,11.322A66.849,66.849,0,0,1,44.7,81.206a106.317,106.317,0,0,1,19.925-1.88h0Zm1.871-24.15h0a129.117,129.117,0,0,1,26.735,2.748,114.813,114.813,0,0,1,29.585,10.608,7.365,7.365,0,1,0,6.848-13.041A130.272,130.272,0,0,0,96.405,43.5a142.847,142.847,0,0,0-29.894-3.115,148.208,148.208,0,0,0-26.471,2.357,99.427,99.427,0,0,0-11.22,2.624,7.365,7.365,0,0,0-2.1,12.993,7.347,7.347,0,0,0,6.532,1.054,86.9,86.9,0,0,1,9.428-2.146A137.033,137.033,0,0,1,66.493,55.175Z" transform="translate(0 0)" fill="#fff" stroke="rgba(0,0,0,0)" stroke-miterlimit="10" stroke-width="1"></path><path id="Tracciato_1" data-name="Tracciato 1" d="M295.038,173.547c2.361,0,12.653-.767,25.167,8.676a1.307,1.307,0,0,1,.268,1.8l-6.013,8.424a1.3,1.3,0,0,1-1.862.272,34.154,34.154,0,0,0-5.2-3.341,29.238,29.238,0,0,0-12.356-3.352c-4.078,0-10.62,1.333-10.62,7.753,0,5.169,4.563,7.107,18.655,10.58,9.166,2.382,19.867,6.783,19.867,20.835,0,12.921-10.74,21.078-25.56,21.078-8.928,0-21.17-3.388-28.946-11.22a1.3,1.3,0,0,1-.05-1.752l6.762-7.959a1.3,1.3,0,0,1,1.879-.114c2.569,2.4,10.076,8.487,20.314,8.487,12.195,0,11.71-7.349,11.71-8.44,0-2.342-1.7-5.612-7.712-7.309s-21.118-4.522-26.771-11.1a17.94,17.94,0,0,1-3.957-12.114C270.609,186.993,275.616,173.547,295.038,173.547Z" transform="translate(-90.412 -132.412)" fill="#fff"></path><path id="Tracciato_2" data-name="Tracciato 2" d="M363.068,191.825a21.826,21.826,0,0,0-16.745,8V194.28a1.3,1.3,0,0,0-1.3-1.3H333.857a1.3,1.3,0,0,0-1.3,1.3v67a1.3,1.3,0,0,0,1.3,1.3h11.2a1.3,1.3,0,0,0,1.305-1.3V240.408s5.447,7.313,17.291,7.313c9.389,0,24.521-7.543,24.521-27.721S373.942,191.825,363.068,191.825Zm-2.9,43.98c-7.6,0-14.04-6.6-14.04-16.035,0-5.754,3.605-15.8,13.886-15.8s14.194,8.286,14.194,15.8S370.068,235.8,360.171,235.8Z" transform="translate(-95.53 -133.864)" fill="#fff"></path><path id="Tracciato_3" data-name="Tracciato 3" d="M425.515,191.825a28.249,28.249,0,0,0-28.463,28.06c0,14.923,11.584,27.964,28.578,27.964a28.076,28.076,0,0,0,28.579-27.964C454.208,205.347,443.084,191.825,425.515,191.825Zm.115,43.98c-7.173,0-15-6-15-15.968s7.058-15.871,15-15.871c6.1,0,14.769,5.044,14.769,15.871S432.8,235.8,425.63,235.8Z" transform="translate(-100.648 -133.864)" fill="#fff"></path><path id="Tracciato_4" data-name="Tracciato 4" d="M494.346,202.523v-9.512a1.306,1.306,0,0,0-1.305-1.305H480.306V178.821a1.3,1.3,0,0,0-1.305-1.3H468.031a1.3,1.3,0,0,0-1.3,1.3v12.885h-5.37a1.3,1.3,0,0,0-1.3,1.305v9.512a1.3,1.3,0,0,0,1.3,1.3h5.37v26.929c0,6.061,2.762,15.651,14.807,15.651a29.8,29.8,0,0,0,12.059-2.772,1.3,1.3,0,0,0,.754-1.183v-9.314a1.043,1.043,0,0,0-1.63-.867,10.984,10.984,0,0,1-6.35,1.784c-5.754,0-6.061-3.913-6.061-6.675V203.828H493.04A1.305,1.305,0,0,0,494.346,202.523Z" transform="translate(-105.648 -132.729)" fill="#fff"></path><circle id="Ellisse_2" data-name="Ellisse 2" cx="8.475" cy="8.475" r="8.475" transform="translate(392.697 35.496)" fill="#fff"></circle><rect id="Rettangolo_2" data-name="Rettangolo 2" width="13.602" height="53.781" rx="1.417" transform="translate(394.352 58.978)" fill="#fff"></rect><path id="Tracciato_5" data-name="Tracciato 5" d="M530.816,203.305h-5.293a1.305,1.305,0,0,1-1.305-1.3v-9.512a1.306,1.306,0,0,1,1.305-1.305h5.293v-3.452c0-2.3.384-16.8,16.648-16.8,8.056,0,10.684,1.8,10.684,1.8v9.782c0,.978-.345,1.783-1.381,1.381a22.181,22.181,0,0,0-6.56-1.209c-2.475,0-5.869,1.439-5.869,5.812v2.685h19.935a1.3,1.3,0,0,1,1.217.835l13.948,36.068,12.526-35.95a1.3,1.3,0,0,1,1.232-.876h12.253a.823.823,0,0,1,.773,1.119c-2.874,7.434-19.163,49.577-21.26,54.925-2.3,5.869-6.214,13.867-17.435,13.867a22.762,22.762,0,0,1-12.452-3.325,1.3,1.3,0,0,1-.472-1.647l4-8.569a.661.661,0,0,1,.945-.289,13.523,13.523,0,0,0,6.776,2.064c4.459,0,6.445-5.265,6.445-5.265l-17.09-40.834H544.424v40.45a1.3,1.3,0,0,1-1.3,1.3H532.093a1.3,1.3,0,0,1-1.3-1.305Z" transform="translate(-110.74 -132.206)" fill="#fff"></path><g id="Raggruppa_1" data-name="Raggruppa 1" transform="translate(502.186 62.703)"><path id="Tracciato_6" data-name="Tracciato 6" d="M620.572,196.976h4.072a3.551,3.551,0,0,1,2.6.9,2.8,2.8,0,0,1,.763,2.036v.026A2.767,2.767,0,0,1,626.1,202.7l2.176,3.182h-2.291l-1.91-2.85h-1.539v2.85h-1.96Zm3.946,4.327c.954,0,1.5-.508,1.5-1.259v-.026c0-.84-.586-1.272-1.54-1.272h-1.947V201.3Z" transform="translate(-620.572 -196.976)" fill="#fff"></path></g><g id="Raggruppa_2" data-name="Raggruppa 2" transform="translate(497.322 58.956)"><path id="Tracciato_7" data-name="Tracciato 7" d="M623.7,209.73a8.412,8.412,0,1,1,8.412-8.413A8.422,8.422,0,0,1,623.7,209.73Zm0-15.9a7.491,7.491,0,1,0,7.491,7.49A7.5,7.5,0,0,0,623.7,193.827Z" transform="translate(-615.289 -192.906)" fill="#fff"></path></g></g></svg>