<svg xmlns="http://www.w3.org/2000/svg" height="37.978" viewBox="0 0 159.916 37.978" width="159.916"><g fill="#e68f00"><path d="m143.091 47.978h2.643a2.825 2.825 0 0 1 2.9 2.939v1.713a2.825 2.825 0 0 1 -2.9 2.94h-2.643zm5.471 21.959h4.653l-4.229-10.916a6.749 6.749 0 0 0 4.117-6.392v-1.713c0-4.094-3.088-7.034-7.369-7.034h-7.109v26.055h4.466v-10.273h1.49zm-24.092-11.353v-8.039a2.9 2.9 0 1 1 5.807 0v8.039zm-4.47 11.353h4.466v-7.258h5.807v7.258h4.467v-19.392c0-4.1-3.09-7.035-7.37-7.035s-7.37 2.94-7.37 7.035zm-8.349-26.054v15.817l-5.4-15.819h-4.875v26.056h4.466v-15.744l5.4 15.744h4.876v-26.054zm-18.989 0v15.817l-5.4-15.819h-4.869v26.056h4.466v-15.744l5.4 15.744h4.876v-26.054zm-24.428 14.7v-8.038a2.9 2.9 0 1 1 5.808 0v8.039zm-4.462 11.354h4.466v-7.258h5.808v7.258h4.466v-19.392c0-4.1-3.089-7.035-7.369-7.035s-7.37 2.94-7.37 7.035z" transform="translate(-39.094 -32.331)"></path><path d="m42.177 60.235v9.665h4.467v-12.084zm13.323-7.213v16.878h4.467v-19.3z" transform="translate(-39.195 -32.298)"></path><path d="m52.124 43.853-4.024 4.021-4.019-4.021h-4.872v16.386l4.466-2.417v-8.907l4.429 4.43 4.43-4.43v4.113l4.466-2.418v-6.757z" transform="translate(-39.209 -32.329)"></path><path d="m117.961 11.539h4.489v26.067h-4.489z"></path><path d="m175.735 43.881v15.819l-5.4-15.819h-4.877v26.055h4.468v-15.745l5.4 15.745h4.874v-26.055z" transform="translate(-38.62 -32.328)"></path><path d="m191.081 66.215a2.827 2.827 0 0 1 -2.9-2.942v-12.728a2.9 2.9 0 1 1 5.807 0v12.729a2.827 2.827 0 0 1 -2.9 2.942m0 4.093c4.281 0 7.37-2.941 7.37-7.035v-12.729c0-4.094-3.089-7.035-7.37-7.035s-7.369 2.941-7.369 7.035v12.729c0 4.094 3.088 7.035 7.369 7.035" transform="translate(-38.535 -32.331)"></path><path d="m117.889 32.382v6.685h3.659v-1.252h-2.292v-5.433z" transform="translate(-38.842 -32.383)"></path><path d="m75.586 0h1.382v6.685h-1.382z"></path></g></svg>