<svg xmlns="http://www.w3.org/2000/svg" width="243.041" height="243.041" viewBox="0 0 243.041 243.041"><g id="Raggruppa_162" data-name="Raggruppa 162" transform="translate(0.301 0.302)"><ellipse id="Ellisse_4" data-name="Ellisse 4" cx="121.219" cy="121.219" rx="121.219" ry="121.219" transform="translate(0 0)" fill="#e68f00" stroke="#e68f00" stroke-width="0.603"></ellipse><path id="Tracciato_248" data-name="Tracciato 248" d="M180.069,1829.818v34.975h34.975v-34.975Zm41.967,0v13.989h13.991v-6.992h-7v-7Zm20.987,0v13.989h6.992v-13.989Zm13.988,0v7h7V1850.8h7v-7h6.992v-6.992H271v-7ZM271,1850.8v7h-7v-7h-7v7h-7v6.994h7v6.993h7v-6.993h13.988V1850.8Zm-7,20.984v13.99h7v-13.99Zm0,13.99H250.015v-20.984h-6.992v6.993h-7v6.994h7v13.993h20.983Zm0,7v6.991h7v7h6.992v-7h7v-13.988h7v-7h13.988v-6.994H284.99v6.994h-7v13.993Zm41.967-13.993v7h7v13.988h7v-27.978h-7v6.994Zm7,20.984h-7v-6.991h-6.992v6.991H284.99v7h20.984v13.99h7v-7h7v-6.994h-7Zm0,20.987v6.991h7v-6.991Zm0,6.991h-7v7h7Zm-7,0v-6.991h-6.992v6.991Zm-6.992,0H284.99v7h7v13.992h7Zm0,20.988v6.99h6.992v-6.99Zm6.992,0h13.991v-7H305.973Zm-6.992,6.99h-7v-6.99h-7v20.984h7v-7h7Zm0,7v7h20.983v-13.993h-7v7Zm-13.991-13.988v-7h-7v7Zm-7-7v-6.995H271v-13.988h-7v6.991h-7v-6.991H243.023v6.991h6.992v7h13.992v13.992h-7v6.99h7v7h7v7h6.992v-13.993H271v-13.988Zm-20.983,7v-7h-7v7Zm-7,0h-6.992v-7h-7v7h-7v6.99h7v7h-7v-7h-7v13.993h34.975v-7H243.023v-7h6.992Zm-20.983,0v-13.992h13.991v-7H229.032v-6.991H215.044v6.991h6.992v20.988Zm-13.988-27.979v-7h13.988v7h7v-7h7v-6.994H229.032v-13.988h-7v13.988h-6.992v-7h-7v7h-7v6.994h7v7Zm-7-20.987v-6.991h-7v6.991Zm0-6.991h7v-7h6.992v-7H208.048v-6.994h-7v6.994H187.065v-6.994h-7v13.99h27.979Zm20.983,0h7V1878.78h-7Zm7,0v6.991h7v-6.991Zm7,6.991v7h6.992v6.994h7v7h7v-13.99h-7v-7ZM271,1920.751h6.992v6.991h7v-6.991h13.991v-7H284.99v-6.994h-7v6.994H271Zm27.979-27.978v-7h-7v7ZM250.015,1857.8v-7H229.032v7h-7v13.988h7v-6.993h7V1857.8Zm34.975-27.981v34.975h34.975v-34.975Zm-97.925,7h20.983V1857.8H187.065Zm104.921,0h20.984V1857.8H291.986Zm-97.929,6.992v7h7v-7Zm104.925,0v7h6.992v-7Zm-118.912,48.967v13.988h7v-7h6.992v-6.991Zm7,13.988v13.99h-7v6.991h20.983v-6.991h-7v-13.99Zm-7,27.978v34.976h34.975v-34.976Zm7,6.995h20.983v20.985H187.065Zm6.992,7v6.99h7v-6.99Z" transform="translate(-128.797 -1778.545)" fill="#fff"></path></g></svg>