<svg xmlns="http://www.w3.org/2000/svg" width="243.439" height="243.438" viewBox="0 0 243.439 243.438"><g id="Raggruppa_161" data-name="Raggruppa 161" transform="translate(0.5 0.5)"><ellipse id="Ellisse_2" data-name="Ellisse 2" cx="121.219" cy="121.219" rx="121.219" ry="121.219" transform="translate(0 0)" fill="#e68f00" stroke="#e68f00" stroke-width="1"></ellipse><g id="Raggruppa_75" data-name="Raggruppa 75" transform="translate(45.849 51.169)"><path id="Path_31" data-name="Path 31" d="M545.868,1917.634H665.2a3.142,3.142,0,1,0,.308-6.277q-.154,0-.308,0h-3.29a58.437,58.437,0,0,0-50.091-56.137v-6.664h6.274a3.138,3.138,0,0,0,3.142-3.129v-3.156a12.577,12.577,0,0,0-12.559-12.563h-6.3a12.577,12.577,0,0,0-12.563,12.563v3.142a3.138,3.138,0,0,0,3.128,3.143h6.293v6.664a58.438,58.438,0,0,0-50.1,56.137h-3.291a3.142,3.142,0,1,0-.307,6.277,2.3,2.3,0,0,0,.307,0Zm21.755-26.649a43.771,43.771,0,0,1,37.909-22.856,3.142,3.142,0,1,1,.3,6.278,1.972,1.972,0,0,1-.3,0,37.478,37.478,0,0,0-32.425,19.638,3.144,3.144,0,1,1-5.639-2.782C567.517,1891.168,567.566,1891.074,567.623,1890.985Z" transform="translate(-530.163 -1829.707)" fill="#fff"></path><path id="Path_32" data-name="Path 32" d="M677.466,1860.781v-3.142a3.137,3.137,0,0,0-3.128-3.144H554.993a3.136,3.136,0,0,0-3.142,3.129v3.156a12.572,12.572,0,0,0-12.563,12.569v9.421a3.141,3.141,0,0,0,3.143,3.143H686.886a3.141,3.141,0,0,0,3.142-3.143v-9.421A12.575,12.575,0,0,0,677.466,1860.781Z" transform="translate(-539.288 -1760.296)" fill="#fff"></path></g></g></svg>