<svg xmlns="http://www.w3.org/2000/svg" xmlns:xlink="http://www.w3.org/1999/xlink" width="246.999" height="246.998" viewBox="0 0 246.999 246.998"><defs><clipPath id="clip-path"><rect width="246.999" height="246.998" fill="none"></rect></clipPath></defs><g id="Griglia_di_ripetizione_7" data-name="Griglia di ripetizione 7" clip-path="url(#clip-path)"><g transform="translate(-2112.824 4001.274)"><g id="Raggruppa_163" data-name="Raggruppa 163" transform="translate(2113.125 -4000.973)"><ellipse id="Ellisse_6" data-name="Ellisse 6" cx="123.198" cy="123.197" rx="123.198" ry="123.197" transform="translate(0 0)" fill="#e68f00" stroke="#e68f00" stroke-width="0.603"></ellipse><path id="Path_27" data-name="Path 27" d="M423.759,1837.426H298.223v83.752H423.759l24.97-41.872-24.97-41.873ZM334.5,1891.507a12.59,12.59,0,0,1-7.554,2.069,14.086,14.086,0,0,1-8.178-2.373,7.493,7.493,0,0,1-3.355-6.787l.034-.072h6.273a4.151,4.151,0,0,0,1.3,3.386,6.23,6.23,0,0,0,3.929,1.014,4.664,4.664,0,0,0,2.983-.809,2.6,2.6,0,0,0,.98-2.1,2.79,2.79,0,0,0-.977-2.27,12.315,12.315,0,0,0-3.485-1.7,26.788,26.788,0,0,1-7.8-3.554,6.413,6.413,0,0,1-2.539-5.476,6.626,6.626,0,0,1,3.047-5.642,12.855,12.855,0,0,1,7.653-2.185,11.687,11.687,0,0,1,7.558,2.37,7.361,7.361,0,0,1,2.846,6.173l-.042.179h-6.247a3.789,3.789,0,0,0-1.125-2.764,4.425,4.425,0,0,0-3.108-1.067,4.829,4.829,0,0,0-3.044.84,2.576,2.576,0,0,0-1.11,2.108,2.239,2.239,0,0,0,1.113,1.95,22.255,22.255,0,0,0,4.184,1.834,19.544,19.544,0,0,1,7.106,3.466,7.083,7.083,0,0,1,2.39,5.661A6.669,6.669,0,0,1,334.5,1891.507Zm22.655,1.919-1.573-5.55h-8.763l-1.562,5.554H338.78l8.956-28.248h6.92l8.972,28.248Zm26.835,0H365.319v-28.251h6.559v23.183H384Zm22.7-23.205h-12.62v6.056h10.594v5.044H394.073v7.036h12.612v5.073H387.515v-28.256h19.171Zm20.961,13.243a4.163,4.163,0,1,1,4.165-4.161h0A4.163,4.163,0,0,1,427.654,1883.464Z" transform="translate(-253.862 -1756.1)" fill="#fff"></path></g><path id="Path_28" data-name="Path 28" d="M315.376,1846.719l-3.988,12.441h8.16l-4.014-12.441Z" transform="translate(1894.986 -5732.798)" fill="#fff"></path></g></g></svg>