<svg xmlns="http://www.w3.org/2000/svg" width="246.999" height="246.998" viewBox="0 0 246.999 246.998"><g id="Raggruppa_164" data-name="Raggruppa 164" transform="translate(0.302 0.302)"><ellipse id="Ellisse_8" data-name="Ellisse 8" cx="123.198" cy="123.197" rx="123.198" ry="123.197" transform="translate(0 0)" fill="#e68f00" stroke="#e68f00" stroke-width="0.603"></ellipse><path id="Path_26" data-name="Path 26" d="M538.061,1869.612a1.113,1.113,0,0,0-1.117-1.032h-20.2v-5.609a32.514,32.514,0,1,0-65.029,0v5.609H431.533a1.117,1.117,0,0,0-1.121,1.032l-7.858,103.158a1.13,1.13,0,0,0,1.053,1.194l.068,0h121.1a1.124,1.124,0,0,0,1.121-1.117.545.545,0,0,0,0-.079Zm-77.382-6.641a23.546,23.546,0,1,1,47.093,0v5.609H460.679Zm-4.484,37a11.227,11.227,0,0,1-11.214-11.218,10.585,10.585,0,0,1,6.726-10.276v10.276a4.488,4.488,0,1,0,8.976,0V1878.49a10.605,10.605,0,0,1,6.73,10.267A11.23,11.23,0,0,1,456.195,1899.975Zm56.068,0a11.23,11.23,0,0,1-11.218-11.218,10.591,10.591,0,0,1,6.726-10.276v10.276a4.49,4.49,0,1,0,8.979,0V1878.49a10.607,10.607,0,0,1,6.726,10.267A11.23,11.23,0,0,1,512.263,1899.975Z" transform="translate(-361.028 -1779.014)" fill="#fff"></path></g></svg>